<svg xmlns="http://www.w3.org/2000/svg" width="36.635" height="30.789" viewbox="0 0 36.635 30.789">
  <path id="Path_782" data-name="Path 782" d="M7.989-6.088c0-4.677,2.6-8.7,8.444-13.251l-2.468-3.378C5.131-17.909.324-10.634.324-2.19c0,6.366,2.988,10.263,8.314,10.263A7.356,7.356,0,0,0,16.3.8c0-3.767-2.6-6.625-6.236-6.625a5.385,5.385,0,0,0-2.079.39ZM36.829.8c0-3.767-2.6-6.625-6.236-6.625a5.386,5.386,0,0,0-2.079.39v-.65c0-4.677,2.6-8.7,8.444-13.251L34.49-22.716C25.656-17.909,20.85-10.634,20.85-2.19c0,6.366,2.988,10.263,8.314,10.263A7.356,7.356,0,0,0,36.829.8Z" transform="translate(36.959 8.073) rotate(180)" fill="#e3d2c2"/>
</svg>
