<svg xmlns="http://www.w3.org/2000/svg" width="47.337" height="50" viewbox="0 0 47.337 50">
  <g id="_019-butt" data-name="019-butt" transform="translate(-0.001)">
    <path id="Path_873" data-name="Path 873" d="M432.887,308.483a.732.732,0,0,0,.884-.54c.041-.171.078-.347.109-.521a.732.732,0,1,0-1.442-.256c-.026.145-.056.291-.091.433A.732.732,0,0,0,432.887,308.483Zm0,0" transform="translate(-390.106 -276.623)" fill="#968675"/>
    <path id="Path_874" data-name="Path 874" d="M382.085,366.978c-.134.059-.272.114-.41.166a.732.732,0,1,0,.506,1.374c.166-.061.332-.128.493-.2a.732.732,0,1,0-.589-1.341Zm0,0" transform="translate(-343.969 -331.085)" fill="#968675"/>
    <path id="Path_875" data-name="Path 875" d="M411.24,235.1a.733.733,0,0,0,.045-1.035c-.119-.13-.244-.258-.372-.381a.732.732,0,1,0-1.017,1.054c.106.1.21.21.309.318a.733.733,0,0,0,1.035.045Zm0,0" transform="translate(-369.665 -210.679)" fill="#968675"/>
    <path id="Path_876" data-name="Path 876" d="M414.154,344.325a.732.732,0,0,0,1.034-.058c.117-.132.233-.269.343-.408a.732.732,0,1,0-1.15-.908c-.092.116-.187.23-.285.34A.732.732,0,0,0,414.154,344.325Zm0,0" transform="translate(-373.488 -309.208)" fill="#968675"/>
    <path id="Path_877" data-name="Path 877" d="M342.659,373.018a.732.732,0,0,0-.2,1.451c.175.024.354.043.53.056l.056,0a.733.733,0,0,0,.055-1.463C342.953,373.054,342.805,373.038,342.659,373.018Zm0,0" transform="translate(-308.445 -336.584)" fill="#968675"/>
    <path id="Path_878" data-name="Path 878" d="M306.263,358.352a.733.733,0,0,0-.862,1.185c.143.1.291.2.441.3a.732.732,0,0,0,.788-1.235C306.505,358.523,306.382,358.439,306.263,358.352Zm0,0" transform="translate(-275.304 -323.23)" fill="#968675"/>
    <path id="Path_879" data-name="Path 879" d="M431.532,268.99a.74.74,0,0,0,.183-.023.732.732,0,0,0,.527-.892c-.044-.172-.094-.344-.148-.512a.732.732,0,1,0-1.393.451c.045.14.087.283.123.426A.733.733,0,0,0,431.532,268.99Zm0,0" transform="translate(-388.607 -240.977)" fill="#968675"/>
    <path id="Path_880" data-name="Path 880" d="M280.065,327.951a.732.732,0,0,0-.338.979c.077.159.161.318.248.471a.732.732,0,0,0,1.275-.721c-.072-.128-.142-.26-.206-.392A.732.732,0,0,0,280.065,327.951Zm0,0" transform="translate(-252.343 -295.857)" fill="#968675"/>
    <path id="Path_881" data-name="Path 881" d="M36.317,307.164a.733.733,0,1,0-1.442.257c.031.174.068.35.109.521a.732.732,0,0,0,.711.56.75.75,0,0,0,.173-.021.733.733,0,0,0,.54-.884C36.373,307.456,36.342,307.31,36.317,307.164Zm0,0" transform="translate(-31.458 -276.623)" fill="#968675"/>
    <path id="Path_882" data-name="Path 882" d="M122.151,374.527l.056,0c.177-.013.355-.032.53-.056a.732.732,0,1,0-.2-1.451c-.146.02-.294.036-.441.047a.732.732,0,0,0,.054,1.463Zm0,0" transform="translate(-109.562 -336.584)" fill="#968675"/>
    <path id="Path_883" data-name="Path 883" d="M159.714,359.952a.728.728,0,0,0,.393-.115c.149-.1.3-.2.441-.3a.733.733,0,0,0-.862-1.185c-.119.087-.243.171-.367.25a.733.733,0,0,0,.395,1.35Zm0,0" transform="translate(-143.455 -323.23)" fill="#968675"/>
    <path id="Path_884" data-name="Path 884" d="M186.61,329.68a.731.731,0,0,0,1-.277c.087-.154.171-.312.248-.471a.732.732,0,1,0-1.317-.642c-.064.132-.134.264-.206.392A.732.732,0,0,0,186.61,329.68Zm0,0" transform="translate(-168.05 -295.859)" fill="#968675"/>
    <path id="Path_885" data-name="Path 885" d="M37.251,267.09a.732.732,0,0,0-.922.471c-.054.167-.1.34-.148.512a.732.732,0,1,0,1.419.365c.037-.143.078-.286.124-.426A.732.732,0,0,0,37.251,267.09Zm0,0" transform="translate(-32.625 -240.975)" fill="#968675"/>
    <path id="Path_886" data-name="Path 886" d="M52.4,342.952a.733.733,0,1,0-1.15.908c.11.139.225.277.343.408a.732.732,0,0,0,1.093-.976C52.586,343.182,52.49,343.068,52.4,342.952Zm0,0" transform="translate(-46.101 -309.209)" fill="#968675"/>
    <path id="Path_887" data-name="Path 887" d="M83.829,367.146c-.138-.051-.276-.107-.41-.166a.732.732,0,0,0-.589,1.341c.161.071.327.138.493.2a.733.733,0,0,0,.506-1.375Zm0,0" transform="translate(-74.345 -331.086)" fill="#968675"/>
    <path id="Path_888" data-name="Path 888" d="M55.619,233.687c-.128.123-.253.252-.372.381a.732.732,0,1,0,1.08.99c.1-.108.2-.215.309-.317a.732.732,0,1,0-1.017-1.054Zm0,0" transform="translate(-49.677 -210.68)" fill="#968675"/>
    <path id="Path_889" data-name="Path 889" d="M39.458,0H7.881a2.357,2.357,0,0,0-2.4,2.3A28.086,28.086,0,0,1,3.021,13.879C-1.565,24.224-.3,37.307,2.668,48.272A2.389,2.389,0,0,0,4.992,50H21.329a1.811,1.811,0,0,0,1.809-1.809V35.376a11.244,11.244,0,0,0,.531-1.181,11.283,11.283,0,0,0,.579,1.273V48.191A1.811,1.811,0,0,0,26.058,50H42.347a2.389,2.389,0,0,0,2.325-1.728,70.687,70.687,0,0,0,2.666-18.428.732.732,0,0,0-.732-.731h0a.732.732,0,0,0-.732.734,69.237,69.237,0,0,1-2.615,18.042.922.922,0,0,1-.91.647H26.058a.345.345,0,0,1-.344-.344V37.607a12.639,12.639,0,0,0,9.6,4.329.732.732,0,0,0,0-1.465c-5.891,0-10.705-4.4-10.906-9.888,1.5-1.366,10.015-8.844,20.031-12.006a39.746,39.746,0,0,1,1.314,7.9.732.732,0,1,0,1.461-.1,37.919,37.919,0,0,0-2.649-11.914A28.711,28.711,0,0,1,41.859,2.3,2.357,2.357,0,0,0,39.458,0ZM21.674,48.191a.345.345,0,0,1-.344.344H4.992a.923.923,0,0,1-.911-.647C.342,34.087,1.287,24.465,2.91,18.581c10.011,3.164,18.522,10.637,20.02,12-.2,5.484-5.016,9.888-10.906,9.888a.732.732,0,1,0,0,1.465,12.635,12.635,0,0,0,9.65-4.385Zm20.5-35.721c-9.552-.45-11.957-.6-16.789-.638h-.006a.732.732,0,0,0-.006,1.465c4.793.04,7.048.181,17.387.667a33.146,33.146,0,0,1,1.252,3.212c-7.219,2.277-14.907,7.212-20.343,12.1-5.439-4.89-13.124-9.822-20.338-12.1A32.322,32.322,0,0,1,4.58,13.964c10.313-.486,12.584-.627,17.387-.667a.732.732,0,0,0-.006-1.465h-.006c-4.838.041-7.253.189-16.789.638A29.231,29.231,0,0,0,6.946,2.3a.893.893,0,0,1,.935-.84H39.458a.893.893,0,0,1,.936.84A29.235,29.235,0,0,0,42.174,12.47Zm0,0" transform="translate(0)" fill="#968675"/>
  </g>
</svg>
