<svg xmlns="http://www.w3.org/2000/svg" width="43.345" height="50" viewbox="0 0 43.345 50">
  <g id="_024-breast" data-name="024-breast" transform="translate(-0.5)">
    <path id="Path_853" data-name="Path 853" d="M128.113,193.872c-.563-.431-2.121-.777-2.79-1.318h0a104.389,104.389,0,0,1-8.5-7.65.732.732,0,0,0-1.042,1.029,105.29,105.29,0,0,0,8.215,7.431,5.262,5.262,0,0,0,1.763,5.784c-1.426,5.016-4.183,8.147-8.2,9.31a12.771,12.771,0,0,1-5.958.222l-4.279-1.036a.733.733,0,1,0-.344,1.424l3.718.9v4.808a.41.41,0,0,1-.41.41h-5.738a.732.732,0,0,0,0,1.465h5.738a1.877,1.877,0,0,0,1.875-1.875v-4.508a14.271,14.271,0,0,0,5.741-.385c3.246-.922,7.515-3.561,9.417-10.9h0c.19-.731,1.4-1.888,1.587-3.154A2.089,2.089,0,0,0,128.113,193.872Zm-.656,1.749a7.984,7.984,0,0,1-1.149,2.086,3.851,3.851,0,0,1-1.02-3.48c.731.348,1.74.667,1.934.808A.624.624,0,0,1,127.457,195.621Zm0,0" transform="translate(-93.227 -166.65)" fill="#968675"/>
    <path id="Path_854" data-name="Path 854" d="M258.121,459.425q-.239.033-.469.059a.733.733,0,0,0,.082,1.46.772.772,0,0,0,.084,0q.245-.028.5-.063a.732.732,0,0,0-.2-1.451Zm0,0" transform="translate(-231.453 -414.553)" fill="#968675"/>
    <path id="Path_855" data-name="Path 855" d="M297.1,450.377c-.15.051-.3.1-.447.145a.732.732,0,1,0,.435,1.4q.24-.074.482-.156a.733.733,0,0,0-.47-1.388Zm0,0" transform="translate(-266.765 -406.36)" fill="#968675"/>
    <path id="Path_856" data-name="Path 856" d="M387.643,259.347a.732.732,0,1,0,1.192-.851q-.145-.2-.291-.4a.732.732,0,1,0-1.182.865Q387.5,259.151,387.643,259.347Zm0,0" transform="translate(-348.955 -232.618)" fill="#968675"/>
    <path id="Path_857" data-name="Path 857" d="M333.582,433.655c-.132.08-.267.16-.4.237a.732.732,0,1,0,.724,1.273c.147-.084.295-.171.439-.258a.733.733,0,0,0-.761-1.252Zm0,0" transform="translate(-299.857 -391.209)" fill="#968675"/>
    <path id="Path_858" data-name="Path 858" d="M335.823,199.354a.732.732,0,0,0,.518-1.251l-.351-.348a.733.733,0,0,0-1.027,1.046q.172.168.343.339A.729.729,0,0,0,335.823,199.354Zm0,0" transform="translate(-301.602 -178.254)" fill="#968675"/>
    <path id="Path_859" data-name="Path 859" d="M243.91,121.588a.732.732,0,0,0,.908-1.149l-.383-.3a.732.732,0,0,0-.909,1.149Zm0,0" transform="translate(-219.043 -108.262)" fill="#968675"/>
    <path id="Path_860" data-name="Path 860" d="M275.246,146.451a.732.732,0,0,0,.922-1.138l-.382-.308a.733.733,0,0,0-.919,1.141Zm0,0" transform="translate(-247.327 -130.698)" fill="#968675"/>
    <path id="Path_861" data-name="Path 861" d="M217.851,460.782a.733.733,0,0,0-.173,1.455c.008,0,.2.024.531.043l.043,0a.732.732,0,0,0,.042-1.464C218.011,460.8,217.852,460.782,217.851,460.782Zm0,0" transform="translate(-195.386 -415.779)" fill="#968675"/>
    <path id="Path_862" data-name="Path 862" d="M426.653,308.556a.733.733,0,0,0,1.027-.135c.122-.16.22-.292.307-.415a.732.732,0,0,0-1.2-.846c-.076.108-.163.225-.274.37A.732.732,0,0,0,426.653,308.556Zm0,0" transform="translate(-384.278 -276.884)" fill="#968675"/>
    <path id="Path_863" data-name="Path 863" d="M184.078,69.259a.732.732,0,0,0,.522-1.246q-.167-.17-.329-.341a.732.732,0,0,0-1.064,1.007q.172.181.349.361A.73.73,0,0,0,184.078,69.259Zm0,0" transform="translate(-164.684 -60.856)" fill="#968675"/>
    <path id="Path_864" data-name="Path 864" d="M212.477,96.021l.378.319a.732.732,0,0,0,.941-1.123l-.368-.311a.733.733,0,1,0-.95,1.115Zm0,0" transform="translate(-191.044 -85.48)" fill="#968675"/>
    <path id="Path_865" data-name="Path 865" d="M363.276,228.427a.732.732,0,0,0,.556-1.209q-.161-.189-.325-.375a.732.732,0,0,0-1.1.965q.158.18.314.364A.732.732,0,0,0,363.276,228.427Zm0,0" transform="translate(-326.399 -204.465)" fill="#968675"/>
    <path id="Path_866" data-name="Path 866" d="M159.544,37.792a.733.733,0,0,0,.615-1.13c-.085-.131-.167-.264-.244-.393a.733.733,0,1,0-1.258.751c.086.144.177.291.271.437A.732.732,0,0,0,159.544,37.792Zm0,0" transform="translate(-142.618 -32.405)" fill="#968675"/>
    <path id="Path_867" data-name="Path 867" d="M305.941,172.05a.732.732,0,1,0,.969-1.1l-.371-.325a.733.733,0,1,0-.961,1.106Zm0,0" transform="translate(-275.057 -153.801)" fill="#968675"/>
    <path id="Path_868" data-name="Path 868" d="M421.515,278.512a.725.725,0,0,0,.215.032.732.732,0,0,0,.214-1.433c-.169-.052-.357-.1-.518-.137a.733.733,0,0,0-.339,1.426C421.218,278.432,421.385,278.473,421.515,278.512Zm0,0" transform="translate(-379.006 -249.909)" fill="#968675"/>
    <path id="Path_869" data-name="Path 869" d="M365.645,410.725a.73.73,0,0,0,.5-.2c.125-.117.248-.237.366-.356a.732.732,0,1,0-1.037-1.035c-.108.108-.22.217-.334.324a.732.732,0,0,0,.5,1.265Zm0,0" transform="translate(-328.825 -368.986)" fill="#968675"/>
    <path id="Path_870" data-name="Path 870" d="M390.809,379.341a.732.732,0,0,0,1.014-.211c.092-.14.184-.285.273-.429a.732.732,0,1,0-1.246-.769c-.082.133-.167.266-.251.394A.733.733,0,0,0,390.809,379.341Zm0,0" transform="translate(-351.895 -340.711)" fill="#968675"/>
    <path id="Path_871" data-name="Path 871" d="M408.979,342.158q-.083.223-.169.441a.733.733,0,1,0,1.361.541q.092-.232.181-.47a.732.732,0,1,0-1.373-.511Zm0,0" transform="translate(-368.389 -308.314)" fill="#968675"/>
    <path id="Path_872" data-name="Path 872" d="M2.375,1.465h8.979a.412.412,0,0,1,.408.375c.428,4.2,3.261,9.222,8.418,14.935a.733.733,0,0,0,1.088-.982c-4.945-5.476-7.652-10.221-8.049-14.1A1.873,1.873,0,0,0,11.354,0H2.375A1.877,1.877,0,0,0,.5,1.875V48.125A1.877,1.877,0,0,0,2.375,50H7.9a.732.732,0,0,0,0-1.465H2.375a.41.41,0,0,1-.41-.41V1.875A.41.41,0,0,1,2.375,1.465Zm0,0" fill="#968675"/>
  </g>
</svg>
