<svg xmlns="http://www.w3.org/2000/svg" width="49.97" height="49.986" viewbox="0 0 49.97 49.986">
  <g id="_025-liposuction-2" data-name="025-liposuction-2" transform="translate(-0.499)">
    <path id="Path_833" data-name="Path 833" d="M422.186,201.145q.037.114.073.228a.732.732,0,0,0,1.4-.444q-.038-.119-.076-.237a.732.732,0,0,0-1.393.453Zm0,0" transform="translate(-380.485 -180.643)" fill="#968675"/>
    <path id="Path_834" data-name="Path 834" d="M410.251,158.207a.733.733,0,0,0-.541.883q.063.265.131.529a.732.732,0,0,0,.709.552.742.742,0,0,0,.181-.023.732.732,0,0,0,.529-.89q-.065-.254-.126-.509A.732.732,0,0,0,410.251,158.207Zm0,0" transform="translate(-369.241 -142.743)" fill="#968675"/>
    <path id="Path_835" data-name="Path 835" d="M402.407,115.107a.733.733,0,0,0-.632.821q.035.27.074.539a.732.732,0,0,0,.724.629.744.744,0,0,0,.1-.007.733.733,0,0,0,.622-.828q-.037-.26-.071-.521A.732.732,0,0,0,402.407,115.107Zm0,0" transform="translate(-362.094 -103.864)" fill="#968675"/>
    <path id="Path_836" data-name="Path 836" d="M399.153,73.422h.028a.732.732,0,0,0,.7-.76q-.01-.263-.017-.526a.732.732,0,1,0-1.464.038q.007.272.018.543A.732.732,0,0,0,399.153,73.422Zm0,0" transform="translate(-359.057 -64.45)" fill="#968675"/>
    <path id="Path_837" data-name="Path 837" d="M399.853,32.286l.048,0a.732.732,0,0,0,.73-.685c.005-.079.011-.159.016-.238a.732.732,0,1,0-1.461-.1q-.009.124-.017.248A.732.732,0,0,0,399.853,32.286Zm0,0" transform="translate(-359.747 -27.594)" fill="#968675"/>
    <path id="Path_838" data-name="Path 838" d="M421.085,467.1a.732.732,0,0,0-.882.543l-.056.238a.732.732,0,0,0,.543.882.748.748,0,0,0,.17.02.732.732,0,0,0,.712-.563l.056-.237A.732.732,0,0,0,421.085,467.1Zm0,0" transform="translate(-378.66 -421.475)" fill="#968675"/>
    <path id="Path_839" data-name="Path 839" d="M439.809,379.544q.038-.28.071-.56a.732.732,0,0,0-1.455-.174q-.032.271-.068.54a.732.732,0,0,0,.628.823.775.775,0,0,0,.1.007A.733.733,0,0,0,439.809,379.544Zm0,0" transform="translate(-395.104 -341.245)" fill="#968675"/>
    <path id="Path_840" data-name="Path 840" d="M431.338,424.32l.128-.542a.732.732,0,0,0-1.426-.334l-.127.537a.732.732,0,1,0,1.425.339Zm0,0" transform="translate(-387.473 -381.594)" fill="#968675"/>
    <path id="Path_841" data-name="Path 841" d="M443.392,337.028q0-.124.005-.248a.732.732,0,1,0-1.464-.027c0,.08,0,.16-.005.24a.733.733,0,0,0,.714.75h.018A.733.733,0,0,0,443.392,337.028Zm0,0" transform="translate(-398.332 -303.227)" fill="#968675"/>
    <path id="Path_842" data-name="Path 842" d="M56.751,337.755a.733.733,0,0,0,.713-.751q0-.12-.005-.239a.732.732,0,0,0-.732-.719h-.014a.732.732,0,0,0-.718.746c0,.083,0,.166.006.249a.732.732,0,0,0,.732.714Zm0,0" transform="translate(-50.077 -303.239)" fill="#968675"/>
    <path id="Path_843" data-name="Path 843" d="M59.814,380.183a.732.732,0,0,0,.629-.823q-.036-.271-.069-.54a.732.732,0,1,0-1.454.174q.034.28.071.559a.733.733,0,0,0,.725.636A.77.77,0,0,0,59.814,380.183Zm0,0" transform="translate(-52.712 -341.254)" fill="#968675"/>
    <path id="Path_844" data-name="Path 844" d="M68.345,423.989l-.127-.536a.732.732,0,0,0-1.427.332l.129.543a.732.732,0,1,0,1.425-.339Zm0,0" transform="translate(-59.803 -381.601)" fill="#968675"/>
    <path id="Path_845" data-name="Path 845" d="M78.717,467.639a.732.732,0,0,0-1.425.338l.056.238a.733.733,0,0,0,.712.563.747.747,0,0,0,.17-.02.732.732,0,0,0,.543-.882Zm0,0" transform="translate(-69.277 -421.476)" fill="#968675"/>
    <path id="Path_846" data-name="Path 846" d="M98.662,31.6a.732.732,0,0,0,.73.685l.048,0a.732.732,0,0,0,.683-.778c-.005-.083-.011-.166-.017-.248a.732.732,0,1,0-1.461.1Zm0,0" transform="translate(-88.563 -27.594)" fill="#968675"/>
    <path id="Path_847" data-name="Path 847" d="M96.369,115.1a.733.733,0,0,0-.82.632q-.034.261-.071.52a.732.732,0,0,0,.621.829.749.749,0,0,0,.1.008.732.732,0,0,0,.724-.629q.039-.269.074-.54A.732.732,0,0,0,96.369,115.1Zm0,0" transform="translate(-85.699 -103.854)" fill="#968675"/>
    <path id="Path_848" data-name="Path 848" d="M88.006,158.2a.733.733,0,0,0-.883.542q-.061.255-.126.51a.732.732,0,0,0,.53.89.721.721,0,0,0,.181.023.733.733,0,0,0,.709-.552q.067-.264.13-.529A.732.732,0,0,0,88.006,158.2Zm0,0" transform="translate(-78.033 -142.736)" fill="#968675"/>
    <path id="Path_849" data-name="Path 849" d="M100.172,71.41h-.019a.732.732,0,0,0-.732.714q-.006.263-.016.525a.732.732,0,0,0,.7.759h.029a.732.732,0,0,0,.731-.7q.01-.272.017-.544A.732.732,0,0,0,100.172,71.41Zm0,0" transform="translate(-89.249 -64.438)" fill="#968675"/>
    <path id="Path_850" data-name="Path 850" d="M76.1,200.222a.733.733,0,0,0-.923.47l-.076.237a.732.732,0,1,0,1.4.444q.037-.114.074-.228A.733.733,0,0,0,76.1,200.222Zm0,0" transform="translate(-67.283 -180.643)" fill="#968675"/>
    <path id="Path_851" data-name="Path 851" d="M236.983,168.541a.732.732,0,0,0-1.464,0,.9.9,0,1,1-1.8,0,.732.732,0,0,0-1.464,0,2.367,2.367,0,1,0,4.733,0Zm0,0" transform="translate(-209.125 -151.426)" fill="#968675"/>
    <path id="Path_852" data-name="Path 852" d="M49.006,31.851a.732.732,0,1,0,1.464-.041,32.836,32.836,0,0,0-2.8-12.41A31.474,31.474,0,0,1,45.357,1.8,1.556,1.556,0,0,0,43.821,0H7.162A1.556,1.556,0,0,0,5.626,1.8,31.465,31.465,0,0,1,3.313,19.4,33.015,33.015,0,0,0,1.941,42.384l1.988,6.5a1.547,1.547,0,0,0,1.487,1.1H22.352a2.042,2.042,0,0,0,1.987-1.612l1.152-5.437,1.152,5.437a2.042,2.042,0,0,0,1.987,1.612H45.567a1.547,1.547,0,0,0,1.487-1.1c2.069-6.765,2.983-9.15,3.329-13.581a.732.732,0,1,0-1.46-.114c-.331,4.236-1.181,6.44-3.269,13.266a.091.091,0,0,1-.087.065H28.631a.57.57,0,0,1-.554-.451L26.641,41.3c2.607-2.149,11.453-9,22.142-12.414Q48.963,30.355,49.006,31.851Zm-26.1,16.22a.57.57,0,0,1-.554.451H5.416a.09.09,0,0,1-.087-.064C3.149,41.326,1.249,36.621,2.2,28.884,12.889,32.3,21.735,39.148,24.342,41.3ZM48.567,27.415c-11.352,3.566-20.7,10.95-23.076,12.934-2.379-1.984-11.725-9.368-23.076-12.934a31.915,31.915,0,0,1,.876-3.729,131.6,131.6,0,0,0,20.482,1.88h.01a.732.732,0,0,0,.01-1.464A130.157,130.157,0,0,1,3.749,22.278C4.724,19.5,8.755,12.352,7.073,1.57A.089.089,0,0,1,7.094,1.5a.086.086,0,0,1,.068-.032H43.821a.086.086,0,0,1,.068.032.088.088,0,0,1,.021.074c-1.657,10.622,2.217,17.559,3.325,20.707A130.172,130.172,0,0,1,27.191,24.1a.732.732,0,0,0,.009,1.464h.01a131.6,131.6,0,0,0,20.483-1.88A31.627,31.627,0,0,1,48.567,27.415Zm0,0" fill="#968675"/>
  </g>
</svg>
