<svg xmlns="http://www.w3.org/2000/svg" width="48.12" height="50" viewbox="0 0 48.12 50">
  <g id="_029-breast-1" data-name="029-breast-1" transform="translate(-0.498)">
    <path id="Path_890" data-name="Path 890" d="M284.846,149.538v-3.826h1.468a1.111,1.111,0,0,0,.785-1.9l-2.2-2.2a1.111,1.111,0,0,0-1.57,0l-2.2,2.2a1.111,1.111,0,0,0,.785,1.9h1.467v3.826a.732.732,0,0,0,1.465,0Zm-.732-6.635,1.344,1.344H282.77Zm0,0" transform="translate(-252.93 -127.494)" fill="#968675"/>
    <path id="Path_891" data-name="Path 891" d="M146.423,143.818l-2.2-2.2a1.112,1.112,0,0,0-1.57,0l-2.2,2.2a1.111,1.111,0,0,0,.785,1.9h1.468v3.826a.732.732,0,0,0,1.465,0v-3.826h1.468A1.111,1.111,0,0,0,146.423,143.818Zm-4.329.431,1.344-1.344,1.344,1.344Zm0,0" transform="translate(-125.992 -127.495)" fill="#968675"/>
    <path id="Path_892" data-name="Path 892" d="M225.933,448.549a.732.732,0,1,0-1.465,0,.779.779,0,1,1-1.546,0,.732.732,0,1,0-1.465,0,2.24,2.24,0,1,0,4.476,0Zm0,0" transform="translate(-199.381 -404.084)" fill="#968675"/>
    <path id="Path_893" data-name="Path 893" d="M359.925,232.577a.731.731,0,0,0,.89-.529,5.244,5.244,0,0,0,.109-.558.733.733,0,1,0-1.451-.2,3.628,3.628,0,0,1-.078.4A.732.732,0,0,0,359.925,232.577Zm0,0" transform="translate(-323.828 -208.131)" fill="#968675"/>
    <path id="Path_894" data-name="Path 894" d="M297.366,265.177a3.624,3.624,0,0,1-.374-.157.732.732,0,1,0-.643,1.316,5.081,5.081,0,0,0,.526.221.733.733,0,1,0,.491-1.38Zm0,0" transform="translate(-266.588 -239.072)" fill="#968675"/>
    <path id="Path_895" data-name="Path 895" d="M335.367,264.66a.725.725,0,0,0,.307-.068,5.076,5.076,0,0,0,.5-.268.733.733,0,0,0-.761-1.252,3.623,3.623,0,0,1-.358.191.733.733,0,0,0,.309,1.4Zm0,0" transform="translate(-301.506 -237.285)" fill="#968675"/>
    <path id="Path_896" data-name="Path 896" d="M272.6,235.852a.732.732,0,0,0-.525.893c.037.141.08.282.129.421a.733.733,0,1,0,1.38-.491c-.035-.1-.066-.2-.092-.3A.732.732,0,0,0,272.6,235.852Zm0,0" transform="translate(-245.033 -212.798)" fill="#968675"/>
    <path id="Path_897" data-name="Path 897" d="M174.114,264.991a3.611,3.611,0,0,1-.374.158.732.732,0,1,0,.493,1.379,5.072,5.072,0,0,0,.525-.222.732.732,0,1,0-.644-1.316Zm0,0" transform="translate(-155.885 -239.045)" fill="#968675"/>
    <path id="Path_898" data-name="Path 898" d="M114.046,230.722a.733.733,0,0,0-.624.827,5.132,5.132,0,0,0,.111.559.732.732,0,0,0,1.419-.364,3.7,3.7,0,0,1-.079-.4A.732.732,0,0,0,114.046,230.722Zm0,0" transform="translate(-101.89 -208.184)" fill="#968675"/>
    <path id="Path_899" data-name="Path 899" d="M135.865,263.1a.732.732,0,0,0-.759,1.253,5.106,5.106,0,0,0,.5.267.732.732,0,1,0,.615-1.329A3.711,3.711,0,0,1,135.865,263.1Zm0,0" transform="translate(-121.144 -237.314)" fill="#968675"/>
    <path id="Path_900" data-name="Path 900" d="M201.067,237.6a.732.732,0,0,0,.935-.446c.048-.136.091-.275.127-.414a.733.733,0,0,0-1.418-.37c-.026.1-.056.2-.09.294A.732.732,0,0,0,201.067,237.6Zm0,0" transform="translate(-180.542 -212.798)" fill="#968675"/>
    <path id="Path_901" data-name="Path 901" d="M22.6,48.535H12.89a75.7,75.7,0,0,0,.428-16.184c5.929,2.545,9.916-4.236,9.916-6.727a.732.732,0,0,0-1.465,0,7.8,7.8,0,0,1-3.525,5.162,5.112,5.112,0,0,1-6.271-1.109,6.4,6.4,0,0,1-1.334-4.8,22.075,22.075,0,0,1,1.836-6.94.733.733,0,0,0-1.348-.574c-1.461,3.43-2.784,8.1-1.354,11.522-1.24,4.349-1.173,4.1-1.185,4.182L6.481,48.535H1.974c.007-.056.462-16.759.463-16.816,0-.016,0-.033.007-.05.083-.677.846-6.8,2-13.161,1.77-9.735,3.237-8.267,9.17-10.472,4.648-1.728,5.5-5.135,5.646-6.571H29.367c.147,1.436,1,4.844,5.646,6.571,5.933,2.205,7.4.738,9.17,10.472.338,1.863.676,3.89,1,6.026a.732.732,0,0,0,1.448-.222c-.33-2.149-.67-4.19-1.011-6.065-1.933-10.63-4.111-9.357-10.1-11.584-3.921-1.458-4.595-4.25-4.7-5.383A1.407,1.407,0,0,0,29.415,0h-10.2a1.407,1.407,0,0,0-1.406,1.28c-.108,1.133-.781,3.925-4.7,5.383C7.119,8.888,4.939,7.6,3,18.246,1.841,24.646,1.073,30.809.99,31.488a.718.718,0,0,0-.016.134L.516,48.365A1.413,1.413,0,0,0,1.911,50H6.539a1.412,1.412,0,0,0,1.337-.955.746.746,0,0,0,.033-.138c2.448-17.956,1.9-14.787,2.9-18.325a6.443,6.443,0,0,0,.956.887A73.943,73.943,0,0,1,11.43,48.4a1.413,1.413,0,0,0,1.4,1.6H22.6a.732.732,0,0,0,0-1.465Zm0,0" fill="#968675"/>
    <path id="Path_902" data-name="Path 902" d="M277.682,204.655l-.944-16.751a.679.679,0,0,0-.015-.11c-.019-.158-.2-1.609-.5-3.752a.732.732,0,1,0-1.451.2c.3,2.13.477,3.569.5,3.725,0,.021.005.042.009.063,0,.039.944,16.764.949,16.8h-4.512c-3.056-18.244-2.254-14.314-3.777-19.651,1.431-3.424.1-8.1-1.354-11.522a.732.732,0,0,0-1.348.574,22.076,22.076,0,0,1,1.836,6.94c.138,2.412-.471,4.611-2.586,5.8-5.2,2.919-8.545-3.381-8.545-5.05a.732.732,0,0,0-1.465,0c0,2.482,3.979,9.275,9.916,6.727a75.7,75.7,0,0,0,.428,16.184h-9.715a.732.732,0,0,0,0,1.465h9.775a1.413,1.413,0,0,0,1.4-1.6,73.946,73.946,0,0,1-.34-16.934,6.383,6.383,0,0,0,.956-.887c1.013,3.551.387.382,3.4,18.348a.716.716,0,0,0,.029.116,1.413,1.413,0,0,0,1.337.955h4.628a1.413,1.413,0,0,0,1.393-1.648Zm0,0" transform="translate(-229.084 -156.302)" fill="#968675"/>
  </g>
</svg>
