<svg xmlns="http://www.w3.org/2000/svg" width="42.542" height="50" viewbox="0 0 42.542 50">
  <g id="_047-nose-1" data-name="047-nose-1" transform="translate(-0.499)">
    <path id="Path_812" data-name="Path 812" d="M355.948,332.169q-.133-.211-.271-.421a.732.732,0,1,0-1.226.8q.131.2.257.4a.733.733,0,1,0,1.24-.781Zm0,0" transform="translate(-319.279 -299.052)" fill="#968675"/>
    <path id="Path_813" data-name="Path 813" d="M369.06,446.6a.732.732,0,0,0,.968-.368c.078-.174.142-.322.2-.464l.006-.013a.728.728,0,0,0-.409-.947.737.737,0,0,0-.954.411c-.051.125-.107.256-.177.413A.732.732,0,0,0,369.06,446.6Zm0,0" transform="translate(-332.178 -401.321)" fill="#968675"/>
    <path id="Path_814" data-name="Path 814" d="M374.02,368.627a.732.732,0,0,0,.472-.922c-.052-.162-.109-.327-.169-.49a.733.733,0,0,0-1.374.509c.053.143.1.288.149.431A.733.733,0,0,0,374.02,368.627Zm0,0" transform="translate(-336.036 -330.922)" fill="#968675"/>
    <path id="Path_815" data-name="Path 815" d="M308.414,266.264a.733.733,0,0,0-.212,1.014q.136.208.274.414a.732.732,0,1,0,1.217-.815q-.133-.2-.265-.4A.733.733,0,0,0,308.414,266.264Zm0,0" transform="translate(-277.545 -240.154)" fill="#968675"/>
    <path id="Path_816" data-name="Path 816" d="M331.44,298.969a.733.733,0,0,0-.155,1.024l.29.393a.732.732,0,0,0,1.18-.869l-.29-.394A.733.733,0,0,0,331.44,298.969Zm0,0" transform="translate(-298.354 -269.644)" fill="#968675"/>
    <path id="Path_817" data-name="Path 817" d="M380.559,407.17c.016-.175.027-.351.034-.525a.732.732,0,1,0-1.464-.057c-.006.148-.016.3-.029.45a.732.732,0,1,0,1.459.132Zm0,0" transform="translate(-341.626 -366.247)" fill="#968675"/>
    <path id="Path_818" data-name="Path 818" d="M118.4,257.779q-.125.2-.253.406a.732.732,0,1,0,1.237.784q.133-.21.264-.423a.733.733,0,1,0-1.249-.766Zm0,0" transform="translate(-106.06 -232.29)" fill="#968675"/>
    <path id="Path_819" data-name="Path 819" d="M95.678,290.806q-.143.2-.286.392a.732.732,0,1,0,1.181.867q.145-.2.29-.4a.732.732,0,0,0-1.184-.862Zm0,0" transform="translate(-85.497 -262.135)" fill="#968675"/>
    <path id="Path_820" data-name="Path 820" d="M53.881,358.26a.733.733,0,0,0-1.33-.614c-.072.158-.142.316-.207.471a.732.732,0,1,0,1.351.565C53.753,358.543,53.816,358.4,53.881,358.26Zm0,0" transform="translate(-46.73 -322.335)" fill="#968675"/>
    <path id="Path_821" data-name="Path 821" d="M49.344,436.456a.733.733,0,0,0,1.378-.5c-.053-.146-.1-.293-.148-.436a.733.733,0,1,0-1.4.445C49.23,436.129,49.285,436.293,49.344,436.456Zm0,0" transform="translate(-43.894 -392.531)" fill="#968675"/>
    <path id="Path_822" data-name="Path 822" d="M45.226,396.827c0-.149.008-.3.019-.449a.733.733,0,0,0-1.462-.1c-.012.174-.019.351-.022.526a.732.732,0,0,0,.721.744h.012A.733.733,0,0,0,45.226,396.827Zm0,0" transform="translate(-39.037 -356.963)" fill="#968675"/>
    <path id="Path_823" data-name="Path 823" d="M72.264,323.184q-.142.205-.282.41a.732.732,0,1,0,1.213.82q.134-.2.271-.395a.732.732,0,1,0-1.2-.836Zm0,0" transform="translate(-64.389 -291.339)" fill="#968675"/>
    <path id="Path_824" data-name="Path 824" d="M236.213,18.314A21.9,21.9,0,0,1,237.7,2.765,1.916,1.916,0,0,0,235.982,0h-6.128a.732.732,0,0,0,0,1.465h6.128a.45.45,0,0,1,.4.652,23.336,23.336,0,0,0-1.59,16.562c2.4,9.346,11.877,13.858,13.091,20.012a.733.733,0,0,0,.718.591.76.76,0,0,0,.143-.014.733.733,0,0,0,.577-.861C247.983,31.619,238.52,27.294,236.213,18.314Zm0,0" transform="translate(-206.295)" fill="#968675"/>
    <path id="Path_825" data-name="Path 825" d="M16.649,48.144a8.214,8.214,0,0,0,10.4,0c8.274,3.544,14.228.437,15.859-6a.732.732,0,1,0-1.42-.36,10.045,10.045,0,0,1-.787,2.052c-3.042,6-9.487,4.377-12.5,3.194a9.44,9.44,0,0,0,1.378-2.126c.93-1.965,2.806-2.605,3.642-2.213a2.384,2.384,0,0,1,1.061,1.46.732.732,0,1,0,1.382-.486c-1.495-4.247-5.885-2.605-7.409.612a7.155,7.155,0,0,1-6.4,4.255,7.156,7.156,0,0,1-6.4-4.255c-1.509-3.186-5.9-4.9-7.409-.612a.732.732,0,1,0,1.382.486c.47-1.334,1.17-1.883,2.449-1.409a4.124,4.124,0,0,1,2.254,2.162A9.427,9.427,0,0,0,15.5,47.033c-3.017,1.183-9.462,2.81-12.5-3.194-4.827-9.528,9.175-13.375,12.2-25.161a23.336,23.336,0,0,0-1.59-16.562.45.45,0,0,1,.4-.652H20.14A.732.732,0,1,0,20.14,0H14.011a1.916,1.916,0,0,0-1.717,2.765A21.906,21.906,0,0,1,13.78,18.314C10.872,29.636-3.715,33.832,1.69,44.5,4.608,50.262,10.691,50.7,16.649,48.144Zm0,0" transform="translate(0)" fill="#968675"/>
  </g>
</svg>
