<svg xmlns="http://www.w3.org/2000/svg" width="40.146" height="50" viewbox="0 0 40.146 50">
  <g id="_034-surgery-1" data-name="034-surgery-1" transform="translate(-0.5 0)">
    <path id="Path_826" data-name="Path 826" d="M40.4,30.214c-1.043-2.3-5.353-5.477-4.346-9.862,1.278-5.571-2.569-11.032-3.719-12.506A4.241,4.241,0,0,0,31.4,3.38,1.87,1.87,0,0,0,29.964,2.7,8.592,8.592,0,0,0,23.49,0a2.78,2.78,0,0,0-1.173.3A18.222,18.222,0,0,0,1.108,15.13a.732.732,0,1,0,1.443.251A16.726,16.726,0,0,1,20.692,1.549c-4.411,4.58-9.744,19.056-15.75,25.2-.054.051-.145.14-.249.258A16.868,16.868,0,0,1,2.3,18.659a.732.732,0,0,0-1.464.029,18.354,18.354,0,0,0,1.391,6.67A6.673,6.673,0,0,0,.5,29.861a6.748,6.748,0,0,0,9.111,6.312A57.935,57.935,0,0,1,8.595,48.209,1.487,1.487,0,0,0,10.051,50h5.506a.732.732,0,1,0,0-1.465H10.051a.021.021,0,0,1-.019-.009.016.016,0,0,1,0-.015,68.345,68.345,0,0,0,.821-17.693,10.51,10.51,0,0,0,3-.607,33.465,33.465,0,0,1,.566,6.3C14.44,42,19.568,45.2,24.5,46.485c.086.691.188,1.37.306,2.025a.017.017,0,0,1,0,.016.021.021,0,0,1-.019.008H18.976a.732.732,0,1,0,0,1.465h5.807a1.487,1.487,0,0,0,1.465-1.748c-.083-.464-.157-.943-.225-1.429a24.549,24.549,0,0,0,4.491.409c6.842,0,4.181-5.119,5.381-6.7a4.609,4.609,0,0,0,1-4.118,2.687,2.687,0,0,1-.033-1.778c.35-.6,1.737-.8,3.156-2.056A1.863,1.863,0,0,0,40.4,30.214ZM2.918,26.835a18.8,18.8,0,0,0,1.02,1.717c-.121,1.556,1.66,1.99,3.23,2.04a17.467,17.467,0,0,0,2.213.241c.065.816.151,2.127.2,3.761a5.283,5.283,0,0,1-7.614-4.732A5.222,5.222,0,0,1,2.918,26.835Zm25.609-23.5a2,2,0,0,0-.309.484C24.712,11.653,13.212,23.3,6.97,29.115c-.342-.019-1.359-.122-1.562-.4-.018-.024,0-.09.008-.128a1.1,1.1,0,0,1,.113-.247c.785-1.34,2-.531,9.868-15.382C16.611,10.666,21.133,1.5,23.512,1.468A7.132,7.132,0,0,1,28.527,3.338Zm2.306,4.24A78.539,78.539,0,0,1,25.061,16.6,65.328,65.328,0,0,1,13.9,28.582a9.527,9.527,0,0,1-5.02.752c.317-.286,3.222-3.064,5.952-5.879C19.556,18.587,26.808,10.6,29.557,4.417a.425.425,0,0,1,.714-.1A2.724,2.724,0,0,1,30.833,7.579Zm8.217,23.9c-1.944,1.718-4.544,1.246-3.566,5.318a1.729,1.729,0,0,1,.119.654,8.117,8.117,0,0,1-3.907-.229.732.732,0,1,0-.453,1.393,9.387,9.387,0,0,0,3.91.383,5.342,5.342,0,0,1-.423.645c-1.206,1.588-.262,4-1.134,5.193-.457.624-1.464.927-3.08.927-4.22,0-8.873-1.159-11.988-3.85-2.813-2.469-2.635-4.871-2.647-5.4a31.6,31.6,0,0,0-.7-7.083,75.835,75.835,0,0,0,16.4-20.147c1.316,1.847,4.056,6.362,3.051,10.739-1.185,5.165,3.522,8.769,4.44,10.794C39.274,31.285,39.16,31.386,39.05,31.483Zm0,0" transform="translate(0 0)" fill="#968675"/>
    <path id="Path_827" data-name="Path 827" d="M306.333,497.682c-.071,0-.475-.031-.547-.037a.732.732,0,1,1,.118-1.46q.235.019.472.033a.733.733,0,0,1-.043,1.464Zm0,0" transform="translate(-274.865 -447.728)" fill="#968675"/>
    <path id="Path_828" data-name="Path 828" d="M375.211,425.719a3.006,3.006,0,0,1,.32-.555.732.732,0,0,1,1.181.866,1.547,1.547,0,0,0-.164.286.732.732,0,1,1-1.338-.6Zm0,0" transform="translate(-338.061 -383.374)" fill="#968675"/>
    <path id="Path_829" data-name="Path 829" d="M345.656,495.486a.733.733,0,0,1-.156-1.448c.142-.031.277-.068.4-.108a.732.732,0,1,1,.449,1.394A3.426,3.426,0,0,1,345.656,495.486Zm0,0" transform="translate(-310.79 -445.663)" fill="#968675"/>
    <path id="Path_830" data-name="Path 830" d="M372.173,465.1a.732.732,0,1,1-1.448-.219c.02-.134.036-.275.048-.434a.732.732,0,0,1,1.46.115C372.218,464.753,372.2,464.928,372.173,465.1Zm0,0" transform="translate(-334.062 -418.48)" fill="#968675"/>
    <path id="Path_831" data-name="Path 831" d="M272.623,188.068a2.681,2.681,0,0,0-.921-1.9.84.84,0,0,0-.505-.157,8.377,8.377,0,0,0-6.016,3.353h0a.815.815,0,0,0,.137,1.167c1.552,2.288,4.669,2.615,5.2,2.615h0a1.62,1.62,0,0,0,1.216-.548A5.84,5.84,0,0,0,272.623,188.068Zm-4.153,1.862a3.451,3.451,0,0,0,.053,1.293,4.662,4.662,0,0,1-1.588-1.02A3.856,3.856,0,0,1,268.47,189.93Zm1.854,1.732a1.983,1.983,0,0,1-.307-1.913,8.338,8.338,0,0,0,1.257-.379,4.238,4.238,0,0,1-.591,2.2C270.592,191.714,270.553,191.689,270.324,191.663Zm.615-4.168a1.656,1.656,0,0,1,.147.363,6.71,6.71,0,0,1-2.8.61A5.69,5.69,0,0,1,270.939,187.495Zm0,0" transform="translate(-238.666 -167.848)" fill="#968675"/>
    <path id="Path_832" data-name="Path 832" d="M265.012,162.323a9.352,9.352,0,0,0-5.692,2.293.733.733,0,1,1-.922-1.139,10.615,10.615,0,0,1,6.686-2.617.733.733,0,0,1-.072,1.463Zm0,0" transform="translate(-232.467 -145.148)" fill="#968675"/>
  </g>
</svg>
