<svg xmlns="http://www.w3.org/2000/svg" width="100" height="25.533" viewbox="0 0 100 25.533">
  <g id="Group_5" data-name="Group 5" transform="translate(-65.979 -173.784)">
    <path id="Path_17" data-name="Path 17" d="M80.708,179.845c-1.742-2.019-4.711-3.008-8.948-3.008a15.227,15.227,0,0,0-2.613.2v21.618a16.1,16.1,0,0,0,3.128.278q6,0,8.552-3.207a12.893,12.893,0,0,0,2.534-8.2,11.129,11.129,0,0,0-2.653-7.681M72.037,200.4a42.668,42.668,0,0,1-6.058-.436V175.847a37.382,37.382,0,0,1,6.176-.4q7.722,0,11.166,3.326a11.392,11.392,0,0,1,3.445,8.671c0,7.206-4.395,12.948-14.729,12.948" transform="translate(0 -1.432)" fill="#2700ff"/>
    <path id="Path_18" data-name="Path 18" d="M483.931,189.732h-1.86v12H478.9V177.419h3.168v10.809h2.1l8.661-10.809h2.341l-8.707,10.769,10.1,13.542H492.8Z" transform="translate(-354.76 -3.123)" fill="#2700ff"/>
    <path id="Path_19" data-name="Path 19" d="M642.4,177.419h3.167v13.462a13.663,13.663,0,0,0,1.584,7.048,5.5,5.5,0,0,0,5.108,2.653c5.227,0,7.087-3.208,7.087-8.791V177.419H661.2v14.888c0,6.176-3.127,9.977-9.106,9.977-6.534,0-9.7-3.841-9.7-10.295Z" transform="translate(-495.225 -3.123)" fill="#2700ff"/>
    <g id="Group_4" data-name="Group 4" transform="translate(91.731 173.784)">
      <path id="Path_20" data-name="Path 20" d="M321.85,177.9a12.36,12.36,0,0,1,1.491.167c.5.08.992.177,1.489.289s.99.251,1.487.41.992.322,1.488.479l1.487.456,1.491.463c.993.317,1.988.621,2.983.936,0,.022,0,.046,0,.068-.991-.2-1.983-.425-2.975-.637-.5-.111-.994-.221-1.491-.333l-1.491-.347c-.5-.112-.994-.222-1.49-.327s-.995-.24-1.493-.4-.995-.328-1.492-.514-.993-.39-1.488-.636c0-.028,0-.053,0-.078" transform="translate(-311.56 -177.321)" fill="#2700ff"/>
      <path id="Path_21" data-name="Path 21" d="M297.409,184.546a19.172,19.172,0,0,1,2.08.242c.347.052.693.122,1.039.185l1.036.217c.691.153,1.381.335,2.072.54s1.38.411,2.071.611,1.383.392,2.073.584,1.383.387,2.076.573c1.383.382,2.768.731,4.154,1.057,0,.022,0,.043,0,.065-1.381-.219-2.763-.484-4.147-.759q-1.038-.214-2.076-.44t-2.078-.469q-1.039-.234-2.078-.454t-2.079-.517l-1.039-.3c-.346-.108-.692-.207-1.038-.322-.691-.22-1.382-.452-2.071-.727,0-.028,0-.056,0-.085" transform="translate(-290.561 -183.03)" fill="#2700ff"/>
      <path id="Path_22" data-name="Path 22" d="M281.681,195.275a19.3,19.3,0,0,1,2.512.171c.417.047.835.117,1.251.18s.835.149,1.252.227c.835.164,1.667.364,2.5.59s1.666.457,2.5.68,1.668.436,2.5.646,1.67.418,2.5.61c1.67.393,3.341.722,5.015.96l0,.06c-1.667-.136-3.337-.379-5.008-.665q-1.253-.22-2.506-.472t-2.508-.528c-.836-.175-1.673-.349-2.509-.513s-1.674-.354-2.51-.557c-.419-.106-.836-.208-1.254-.308s-.835-.206-1.252-.316c-.835-.214-1.669-.428-2.5-.679,0-.03,0-.059,0-.089" transform="translate(-277.048 -192.248)" fill="#2700ff"/>
      <path id="Path_23" data-name="Path 23" d="M271.572,208.411a18.067,18.067,0,0,1,2.833.008c.471.028.941.084,1.414.137s.94.129,1.412.2c.939.152,1.88.35,2.821.578s1.88.462,2.822.694,1.882.445,2.824.654,1.882.41,2.824.584a39.534,39.534,0,0,0,5.656.688c0,.019,0,.038,0,.056a40.159,40.159,0,0,1-5.648-.4c-.943-.129-1.886-.28-2.828-.444s-1.886-.348-2.829-.529-1.887-.351-2.831-.517-1.888-.347-2.831-.534q-.708-.15-1.415-.281c-.471-.1-.941-.18-1.412-.272-.942-.179-1.881-.347-2.82-.533,0-.031,0-.063,0-.094" transform="translate(-268.361 -203.488)" fill="#2700ff"/>
      <path id="Path_24" data-name="Path 24" d="M265.107,222.453a16.9,16.9,0,0,1,2.99-.2c.5,0,.994.032,1.49.063s.993.089,1.49.144c.992.121,1.983.294,2.975.5s1.984.427,2.976.644c1.986.422,3.973.835,5.958,1.125a32.942,32.942,0,0,0,5.965.406c0,.019,0,.038,0,.057a33.716,33.716,0,0,1-5.959-.121c-1.987-.2-3.977-.524-5.967-.849-.994-.157-1.99-.315-2.985-.46s-1.991-.3-2.986-.449c-.5-.082-.995-.157-1.492-.223s-.994-.134-1.49-.2c-.993-.125-1.985-.229-2.974-.338,0-.034,0-.065,0-.1" transform="translate(-262.807 -215.423)" fill="#2700ff"/>
      <path id="Path_25" data-name="Path 25" d="M255.934,236.727a16.354,16.354,0,0,1,3.213-.493c.535-.038,1.069-.04,1.6-.04s1.068.03,1.6.064c1.066.073,2.133.212,3.2.393s2.132.38,3.2.578c2.133.386,4.268.768,6.4.993a29.526,29.526,0,0,0,6.414.084c0,.018,0,.037,0,.054a30.531,30.531,0,0,1-6.406.2c-2.137-.139-4.275-.428-6.415-.71-1.071-.136-2.14-.268-3.211-.38s-2.14-.227-3.21-.333c-.534-.057-1.07-.105-1.6-.141s-1.069-.071-1.6-.1c-1.067-.051-2.133-.064-3.2-.067,0-.033,0-.067,0-.1" transform="translate(-254.926 -227.402)" fill="#2700ff"/>
      <path id="Path_26" data-name="Path 26" d="M249.511,251.291a16.29,16.29,0,0,1,3.34-.768c.556-.077,1.111-.116,1.666-.149s1.109-.033,1.664-.029a29.985,29.985,0,0,1,3.325.248c1.108.14,2.217.3,3.325.469,2.217.319,4.436.643,6.654.8a29.148,29.148,0,0,0,6.665-.189c0,.018,0,.037,0,.055a30.227,30.227,0,0,1-6.657.469c-2.221-.069-4.443-.3-6.666-.506-1.112-.1-2.224-.193-3.336-.261s-2.224-.132-3.336-.181c-.556-.029-1.111-.047-1.666-.049s-1.11,0-1.664,0c-1.109.024-2.218.1-3.321.192,0-.035,0-.069,0-.1" transform="translate(-249.408 -239.56)" fill="#2700ff"/>
      <path id="Path_27" data-name="Path 27" d="M248.807,265.8a17.217,17.217,0,0,1,3.364-.907c.56-.1,1.119-.162,1.679-.218s1.118-.078,1.677-.1a29.673,29.673,0,0,1,3.35.115c1.115.1,2.232.216,3.349.337,2.234.23,4.469.465,6.705.531a29.617,29.617,0,0,0,6.712-.46c0,.018,0,.037.006.054a30.975,30.975,0,0,1-6.706.738c-2.238.021-4.477-.113-6.717-.23-1.12-.053-2.24-.1-3.361-.123s-2.24-.041-3.361-.044c-.56,0-1.12,0-1.68.018s-1.117.041-1.676.069c-1.117.067-2.233.182-3.346.322,0-.033,0-.069,0-.1" transform="translate(-248.803 -251.78)" fill="#2700ff"/>
      <path id="Path_28" data-name="Path 28" d="M253.948,278.448a18.474,18.474,0,0,1,3.285-.9c.548-.1,1.094-.175,1.639-.243s1.091-.1,1.637-.135a31.652,31.652,0,0,1,3.271.008c1.09.054,2.181.125,3.272.195,2.182.129,4.366.251,6.55.215a31.425,31.425,0,0,0,6.557-.711c0,.018,0,.037,0,.055a33.1,33.1,0,0,1-6.55.981c-2.185.123-4.372.1-6.56.089-1.094,0-2.188,0-3.282.023s-2.19.04-3.282.068c-.547.008-1.093.025-1.639.053s-1.094.058-1.639.092c-1.092.076-2.182.188-3.269.314,0-.034,0-.068,0-.1" transform="translate(-253.219 -262.355)" fill="#2700ff"/>
      <path id="Path_29" data-name="Path 29" d="M262.124,288.384a19.872,19.872,0,0,1,3.1-.839c.516-.1,1.03-.177,1.547-.25s1.03-.119,1.546-.165c1.03-.085,2.059-.111,3.089-.1s2.057.03,3.089.046c2.061.022,4.121.03,6.183-.092a36.153,36.153,0,0,0,6.191-.835c0,.018,0,.036,0,.055a38.61,38.61,0,0,1-6.183,1.1c-2.064.206-4.128.3-6.193.393-1.033.054-2.066.106-3.1.174s-2.066.126-3.1.177q-.774.033-1.548.085c-.516.025-1.031.068-1.547.1-1.03.074-2.059.168-3.085.254,0-.034,0-.068,0-.1" transform="translate(-260.244 -270.32)" fill="#2700ff"/>
      <path id="Path_30" data-name="Path 30" d="M265.976,298.819a21.665,21.665,0,0,1,2.967-.862c.493-.114.987-.2,1.48-.288s.986-.151,1.478-.216c.985-.123,1.97-.2,2.955-.234s1.969-.071,2.955-.107,1.972-.089,2.956-.148,1.972-.127,2.96-.22a45.744,45.744,0,0,0,5.922-.916c0,.018,0,.036,0,.054a49.6,49.6,0,0,1-5.916,1.18c-.987.139-1.973.259-2.962.369s-1.974.206-2.962.3-1.976.212-2.964.33-1.977.22-2.966.312c-.493.04-.987.085-1.48.136s-.987.094-1.48.136c-.986.093-1.971.192-2.952.273,0-.034,0-.068,0-.1" transform="translate(-263.554 -278.636)" fill="#2700ff"/>
      <path id="Path_31" data-name="Path 31" d="M274.378,309.117a23.608,23.608,0,0,1,2.75-.842c.458-.118.915-.211,1.373-.309s.913-.173,1.37-.255c.913-.152,1.827-.262,2.74-.346s1.827-.159,2.741-.247,1.827-.186,2.741-.289,1.828-.212,2.743-.338c1.83-.246,3.66-.565,5.492-.979,0,.019,0,.037,0,.055-1.827.5-3.656.889-5.484,1.239-.916.172-1.83.332-2.745.487s-1.832.3-2.747.443-1.833.3-2.748.469-1.833.3-2.749.424c-.458.057-.917.113-1.374.174s-.915.115-1.372.161c-.914.1-1.829.2-2.738.258,0-.034,0-.069,0-.1" transform="translate(-270.773 -286.956)" fill="#2700ff"/>
      <path id="Path_32" data-name="Path 32" d="M288.92,320.076a22.508,22.508,0,0,1,2.356-.8c.39-.118.782-.213,1.174-.314s.782-.184,1.172-.274c.784-.171,1.564-.307,2.346-.42s1.564-.222,2.346-.344,1.564-.25,2.346-.383,1.566-.262,2.349-.4c1.565-.276,3.132-.592,4.7-.938,0,.02,0,.037,0,.056-1.564.435-3.129.818-4.7,1.2q-1.174.277-2.35.548l-2.352.53c-.784.181-1.567.362-2.352.555s-1.568.355-2.353.5l-1.175.2c-.392.057-.783.122-1.174.17-.783.1-1.565.191-2.345.225,0-.033,0-.067,0-.1" transform="translate(-283.267 -296.143)" fill="#2700ff"/>
      <path id="Path_33" data-name="Path 33" d="M315.049,332.49a14.707,14.707,0,0,1,1.607-.678q.8-.29,1.6-.52c.534-.154,1.068-.28,1.6-.384s1.069-.207,1.6-.318,1.07-.231,1.6-.348,1.069-.23,1.605-.347c1.072-.229,2.142-.473,3.214-.708,0,.019,0,.038,0,.057-1.068.33-2.138.645-3.207.972-.534.161-1.07.321-1.605.483s-1.071.319-1.606.48-1.072.333-1.609.507-1.071.32-1.607.441-1.072.225-1.607.306a11.413,11.413,0,0,1-1.6.15c0-.031,0-.063,0-.094" transform="translate(-305.716 -307.296)" fill="#2700ff"/>
      <path id="Path_34" data-name="Path 34" d="M347.49,173.784a5.133,5.133,0,0,1,.789.09c.257.046.512.1.761.171a11.85,11.85,0,0,1,1.449.555q.723.283,1.438.581c.478.2.958.4,1.433.609l-.019.054c-.5-.125-1-.264-1.5-.394s-1-.277-1.5-.421a12.206,12.206,0,0,1-1.486-.447c-.239-.1-.475-.209-.706-.33a5.207,5.207,0,0,1-.678-.412Z" transform="translate(-333.574 -173.784)" fill="#2700ff"/>
      <path id="Path_35" data-name="Path 35" d="M349.675,342.511a6.651,6.651,0,0,1,.794-.412c.268-.123.543-.227.818-.33a15.46,15.46,0,0,1,1.7-.444q.852-.215,1.709-.417c.572-.13,1.143-.268,1.717-.39l.016.053c-.549.21-1.1.4-1.653.608s-1.106.391-1.66.579a15.769,15.769,0,0,1-1.669.552c-.286.065-.574.125-.866.168a6.392,6.392,0,0,1-.891.086Z" transform="translate(-335.466 -317.033)" fill="#2700ff"/>
    </g>
  </g>
</svg>
