<svg xmlns="http://www.w3.org/2000/svg" width="150" height="38.299" viewbox="0 0 150 38.299">
  <g id="Group_5" data-name="Group 5" transform="translate(-65.979 -173.784)">
    <path id="Path_17" data-name="Path 17" d="M88.073,182.043c-2.613-3.028-7.067-4.512-13.422-4.512a22.84,22.84,0,0,0-3.92.3v32.427a24.146,24.146,0,0,0,4.691.417q9,0,12.828-4.81c2.554-3.268,3.8-7.364,3.8-12.3a16.693,16.693,0,0,0-3.979-11.522M75.066,212.868a64,64,0,0,1-9.087-.654V176.045a56.072,56.072,0,0,1,9.264-.594q11.583,0,16.749,4.989,5.167,4.9,5.168,13.007c0,10.809-6.592,19.422-22.094,19.422" transform="translate(0 -1.315)" fill="#fff"/>
    <path id="Path_18" data-name="Path 18" d="M486.445,195.889h-2.79v18H478.9V177.419h4.753v16.214H486.8l12.992-16.214h3.512l-13.06,16.153,15.144,20.313h-5.642Z" transform="translate(-325.678 -2.867)" fill="#fff"/>
    <path id="Path_19" data-name="Path 19" d="M642.4,177.419h4.75v20.193c0,4.335.772,7.9,2.375,10.572s4.159,3.98,7.662,3.98c7.84,0,10.631-4.812,10.631-13.186V177.419h2.791v22.332c0,9.264-4.69,14.966-13.659,14.966-9.8,0-14.551-5.761-14.551-15.442Z" transform="translate(-454.629 -2.867)" fill="#fff"/>
    <g id="Group_4" data-name="Group 4" transform="translate(104.608 173.784)">
      <path id="Path_20" data-name="Path 20" d="M321.851,177.9a18.538,18.538,0,0,1,2.237.25c.746.12,1.488.266,2.233.434s1.485.376,2.231.614,1.487.483,2.233.719l2.231.683,2.237.695c1.489.475,2.981.931,4.474,1.4,0,.033,0,.069,0,.1-1.486-.3-2.975-.638-4.463-.956-.746-.167-1.491-.331-2.237-.5s-1.49-.345-2.236-.52-1.491-.332-2.236-.491-1.492-.359-2.239-.593-1.492-.491-2.238-.772-1.49-.585-2.232-.954c0-.041,0-.08,0-.118" transform="translate(-306.415 -177.031)" fill="#fff"/>
      <path id="Path_21" data-name="Path 21" d="M297.409,184.546a28.757,28.757,0,0,1,3.12.363c.52.079,1.039.184,1.558.278l1.553.326c1.036.229,2.072.5,3.109.809s2.07.617,3.106.917,2.074.588,3.11.875,2.074.58,3.113.86c2.075.573,4.151,1.1,6.23,1.585,0,.033,0,.065,0,.1-2.072-.328-4.145-.725-6.22-1.139q-1.557-.321-3.114-.66t-3.117-.7q-1.559-.351-3.116-.681t-3.119-.776c-.518-.152-1.039-.3-1.558-.452s-1.038-.311-1.557-.483c-1.037-.33-2.073-.678-3.106-1.09,0-.042,0-.083,0-.127" transform="translate(-287.138 -182.272)" fill="#fff"/>
      <path id="Path_22" data-name="Path 22" d="M281.683,195.275a28.946,28.946,0,0,1,3.769.257c.625.071,1.252.176,1.877.27q.939.166,1.878.341c1.252.246,2.5.545,3.752.886s2.5.685,3.753,1.02,2.5.654,3.752.969,2.5.627,3.757.915c2.505.589,5.011,1.082,7.522,1.44,0,.03,0,.062,0,.091-2.5-.2-5.005-.568-7.511-1q-1.879-.33-3.76-.708c-1.254-.256-2.508-.522-3.761-.792s-2.509-.523-3.764-.77-2.511-.531-3.764-.835c-.628-.159-1.254-.312-1.881-.463s-1.253-.308-1.879-.474c-1.253-.321-2.5-.642-3.748-1.018,0-.044,0-.089,0-.134" transform="translate(-274.733 -190.734)" fill="#fff"/>
      <path id="Path_23" data-name="Path 23" d="M271.574,208.437a27.1,27.1,0,0,1,4.25.012c.707.041,1.411.127,2.12.205s1.41.193,2.118.3c1.409.227,2.821.525,4.231.867s2.82.693,4.233,1.041,2.822.668,4.236.981,2.822.615,4.237.876a59.3,59.3,0,0,0,8.485,1.032c0,.029,0,.057.006.084a60.237,60.237,0,0,1-8.473-.594c-1.414-.193-2.829-.42-4.242-.665s-2.829-.521-4.244-.793-2.831-.527-4.246-.776-2.832-.521-4.246-.8q-1.061-.224-2.123-.422c-.706-.146-1.412-.269-2.119-.409-1.413-.268-2.822-.52-4.23-.8,0-.046,0-.094.006-.141" transform="translate(-266.758 -201.053)" fill="#fff"/>
      <path id="Path_24" data-name="Path 24" d="M265.109,222.554a25.355,25.355,0,0,1,4.485-.3c.745,0,1.491.048,2.235.094s1.49.134,2.235.216c1.488.181,2.975.441,4.462.754s2.976.641,4.463.966c2.979.634,5.959,1.253,8.938,1.688a49.412,49.412,0,0,0,8.948.609c0,.029.006.057.007.085a50.577,50.577,0,0,1-8.938-.181c-2.981-.3-5.965-.786-8.95-1.274-1.491-.235-2.985-.472-4.478-.689s-2.987-.444-4.479-.673c-.747-.122-1.492-.235-2.237-.334-.747-.114-1.491-.2-2.236-.3-1.489-.188-2.977-.344-4.461-.507,0-.051,0-.1.006-.149" transform="translate(-261.659 -212.01)" fill="#fff"/>
      <path id="Path_25" data-name="Path 25" d="M255.936,236.994a24.532,24.532,0,0,1,4.82-.74c.8-.057,1.6-.06,2.405-.06s1.6.045,2.4.1c1.6.11,3.2.318,4.8.59s3.2.571,4.8.866c3.2.579,6.4,1.152,9.606,1.49a44.289,44.289,0,0,0,9.621.127c0,.028,0,.055.006.081a45.794,45.794,0,0,1-9.61.3c-3.206-.209-6.413-.642-9.622-1.065-1.607-.2-3.21-.4-4.816-.571s-3.21-.341-4.815-.5c-.8-.085-1.6-.158-2.406-.212-.8-.069-1.6-.106-2.4-.153-1.6-.076-3.2-.1-4.793-.1,0-.05,0-.1.006-.151" transform="translate(-254.424 -223.007)" fill="#fff"/>
      <path id="Path_26" data-name="Path 26" d="M249.513,251.764a24.435,24.435,0,0,1,5.01-1.152c.834-.116,1.666-.173,2.5-.223s1.664-.049,2.5-.044a44.977,44.977,0,0,1,4.987.372c1.662.21,3.325.456,4.987.7,3.325.479,6.654.965,9.982,1.2a43.722,43.722,0,0,0,10-.283c0,.027,0,.056.005.083a45.342,45.342,0,0,1-9.986.7c-3.331-.1-6.664-.444-10-.759-1.668-.149-3.336-.29-5-.391s-3.337-.2-5-.272c-.834-.043-1.667-.07-2.5-.074-.832-.021-1.665-.006-2.5,0-1.663.036-3.326.143-4.982.288,0-.052,0-.1.006-.155" transform="translate(-249.358 -234.168)" fill="#fff"/>
      <path id="Path_27" data-name="Path 27" d="M248.809,266.416a25.826,25.826,0,0,1,5.046-1.361c.84-.15,1.678-.243,2.518-.328s1.677-.118,2.515-.147a44.5,44.5,0,0,1,5.025.173c1.673.144,3.349.324,5.024.5,3.351.345,6.7.7,10.058.8a44.425,44.425,0,0,0,10.068-.69c0,.027.006.055.009.081a46.461,46.461,0,0,1-10.059,1.107c-3.357.032-6.716-.17-10.075-.345-1.68-.079-3.361-.153-5.041-.184s-3.361-.061-5.041-.067c-.84-.007-1.68,0-2.519.027s-1.676.061-2.514.1c-1.675.1-3.35.273-5.018.483,0-.05,0-.1.006-.155" transform="translate(-248.803 -245.386)" fill="#fff"/>
      <path id="Path_28" data-name="Path 28" d="M253.95,279.234a27.709,27.709,0,0,1,4.928-1.35c.821-.157,1.64-.262,2.459-.364q1.227-.126,2.456-.2a47.474,47.474,0,0,1,4.907.012c1.635.081,3.272.188,4.908.292,3.273.193,6.549.376,9.825.322a47.14,47.14,0,0,0,9.836-1.067c0,.027,0,.055.006.083a49.643,49.643,0,0,1-9.824,1.471c-3.278.184-6.558.152-9.84.133-1.642,0-3.283,0-4.924.035s-3.285.06-4.923.1c-.821.013-1.64.037-2.459.079s-1.641.087-2.458.138c-1.638.115-3.273.281-4.9.471,0-.051,0-.1.007-.155" transform="translate(-252.857 -255.094)" fill="#fff"/>
      <path id="Path_29" data-name="Path 29" d="M262.125,289.5a29.806,29.806,0,0,1,4.653-1.258c.773-.155,1.546-.265,2.321-.375s1.544-.179,2.318-.247c1.545-.128,3.089-.167,4.633-.153s3.086.045,4.633.068c3.091.033,6.181.045,9.274-.138a54.233,54.233,0,0,0,9.287-1.252c0,.027,0,.054.007.083a57.915,57.915,0,0,1-9.275,1.65c-3.1.309-6.192.449-9.29.589-1.55.08-3.1.16-4.65.261s-3.1.189-4.647.266q-1.162.049-2.321.128c-.774.037-1.547.1-2.321.15-1.545.111-3.089.251-4.628.382,0-.051,0-.1.005-.153" transform="translate(-259.306 -262.406)" fill="#fff"/>
      <path id="Path_30" data-name="Path 30" d="M265.978,300.315a32.493,32.493,0,0,1,4.451-1.293c.739-.17,1.48-.3,2.22-.433q1.108-.176,2.218-.325c1.478-.184,2.956-.293,4.432-.351s2.954-.107,4.432-.161,2.958-.133,4.435-.222,2.957-.19,4.439-.331a68.616,68.616,0,0,0,8.883-1.374c0,.027,0,.054.006.081a74.407,74.407,0,0,1-8.874,1.771c-1.481.209-2.96.388-4.443.554s-2.961.309-4.443.454-2.964.318-4.446.5-2.965.33-4.448.468c-.739.06-1.481.127-2.22.2-.739.058-1.48.142-2.22.2-1.48.14-2.956.289-4.428.41,0-.052,0-.1.006-.153" transform="translate(-262.344 -270.041)" fill="#fff"/>
      <path id="Path_31" data-name="Path 31" d="M274.38,310.92a35.411,35.411,0,0,1,4.125-1.263c.687-.177,1.373-.316,2.06-.464q1.027-.2,2.055-.382c1.37-.228,2.74-.393,4.109-.518s2.74-.239,4.111-.371,2.74-.278,4.112-.434,2.742-.318,4.114-.507c2.744-.369,5.49-.848,8.238-1.469,0,.029,0,.055.005.083-2.74.752-5.484,1.333-8.226,1.859-1.374.258-2.745.5-4.118.73s-2.748.446-4.121.665-2.749.455-4.122.7-2.75.455-4.123.636c-.688.085-1.375.17-2.061.261s-1.373.172-2.058.242c-1.371.153-2.743.3-4.106.386,0-.051,0-.1,0-.154" transform="translate(-268.972 -277.679)" fill="#fff"/>
      <path id="Path_32" data-name="Path 32" d="M288.92,322.013a33.754,33.754,0,0,1,3.534-1.194c.585-.176,1.172-.319,1.761-.471s1.173-.276,1.758-.411c1.175-.256,2.346-.46,3.52-.63s2.345-.332,3.519-.515,2.346-.375,3.52-.574,2.348-.393,3.523-.606c2.348-.413,4.7-.887,7.05-1.407,0,.03.005.056.007.084-2.346.652-4.694,1.228-7.043,1.8q-1.761.415-3.524.822t-3.527.8c-1.176.271-2.35.543-3.529.832s-2.352.533-3.53.743q-.881.146-1.762.294c-.588.086-1.174.184-1.761.254-1.174.153-2.347.286-3.517.337,0-.049,0-.1,0-.149" transform="translate(-280.442 -286.112)" fill="#fff"/>
      <path id="Path_33" data-name="Path 33" d="M315.049,334.142a22.069,22.069,0,0,1,2.411-1.018q1.2-.435,2.407-.781c.8-.231,1.6-.42,2.4-.576s1.6-.311,2.406-.477,1.6-.346,2.405-.522,1.6-.345,2.408-.521c1.607-.344,3.213-.709,4.821-1.062,0,.029,0,.057,0,.086-1.6.495-3.207.967-4.811,1.458-.8.242-1.6.481-2.408.725s-1.606.479-2.409.72-1.608.5-2.413.761-1.607.479-2.41.662-1.608.337-2.411.46a17.119,17.119,0,0,1-2.4.225c0-.047,0-.095,0-.141" transform="translate(-301.05 -296.351)" fill="#fff"/>
      <path id="Path_34" data-name="Path 34" d="M347.5,173.784a7.7,7.7,0,0,1,1.184.134c.386.069.768.154,1.142.257a17.773,17.773,0,0,1,2.174.832q1.084.424,2.158.871c.717.305,1.437.6,2.15.913l-.029.08c-.756-.188-1.5-.4-2.256-.591s-1.5-.415-2.243-.632a18.313,18.313,0,0,1-2.228-.67c-.359-.148-.712-.314-1.059-.495a7.808,7.808,0,0,1-1.018-.619Z" transform="translate(-326.625 -173.784)" fill="#fff"/>
      <path id="Path_35" data-name="Path 35" d="M349.675,343.508a9.97,9.97,0,0,1,1.191-.618c.4-.184.815-.341,1.227-.495a23.19,23.19,0,0,1,2.551-.665q1.277-.322,2.563-.625c.858-.2,1.714-.4,2.576-.585l.024.08c-.823.315-1.653.607-2.48.912s-1.659.586-2.49.869a23.649,23.649,0,0,1-2.5.828c-.429.1-.86.188-1.3.253a9.588,9.588,0,0,1-1.336.129Z" transform="translate(-328.362 -305.29)" fill="#fff"/>
    </g>
  </g>
</svg>
