<svg xmlns="http://www.w3.org/2000/svg" width="398.904" height="393.486" viewbox="0 0 398.904 393.486">
  <g id="Group_289" data-name="Group 289" transform="matrix(0.966, -0.259, 0.259, 0.966, -41.765, 75.057)" style="isolation: isolate">
    <path id="Path_20" data-name="Path 20" d="M321.865,177.9a178.805,178.805,0,0,1,21.576,2.415c7.194,1.157,14.355,2.562,21.54,4.188q10.741,2.47,21.515,5.926c7.161,2.393,14.346,4.663,21.532,6.933q10.753,3.289,21.515,6.592,10.786,3.35,21.57,6.7c14.36,4.585,28.754,8.983,43.152,13.541.01.322.025.664.039.982-14.33-2.925-28.693-6.15-43.046-9.217-7.192-1.61-14.378-3.193-21.571-4.815-7.175-1.671-14.368-3.328-21.568-5.015-7.169-1.626-14.385-3.206-21.562-4.738q-10.811-2.323-21.593-5.72-10.808-3.381-21.584-7.442c-7.184-2.733-14.369-5.638-21.531-9.2.016-.4.016-.769.016-1.135" transform="translate(-172.996 -169.512)" fill="#333"/>
    <path id="Path_21" data-name="Path 21" d="M297.429,184.546a277.375,277.375,0,0,1,30.088,3.5c5.013.758,10.022,1.771,15.029,2.682q7.476,1.556,14.982,3.144c9.991,2.209,19.983,4.848,29.982,7.807q14.962,4.53,29.957,8.84,15,4.279,30,8.443,15.008,4.245,30.026,8.3c20.012,5.528,40.039,10.582,60.091,15.29.017.322.023.625.047.939-19.983-3.162-39.979-7-59.993-10.983q-15.02-3.093-30.032-6.364-15.037-3.334-30.06-6.778-15.033-3.381-30.057-6.572-15.046-3.28-30.079-7.483c-5-1.465-10.022-2.922-15.028-4.363-5.007-1.565-10.014-3-15.013-4.654-10-3.179-20-6.541-29.958-10.513.014-.407.023-.8.023-1.227" transform="translate(-198.362 -162.615)" fill="#333"/>
    <path id="Path_22" data-name="Path 22" d="M281.715,195.279a279.183,279.183,0,0,1,36.347,2.476c6.026.684,12.075,1.7,18.1,2.608q9.053,1.6,18.112,3.289c12.078,2.376,24.123,5.259,36.19,8.543q18.081,4.991,36.192,9.836c12.061,3.167,24.131,6.311,36.19,9.348,12.07,3.083,24.154,6.05,36.238,8.821,24.162,5.685,48.33,10.439,72.546,13.889.014.291.029.6.044.874-24.121-1.963-48.275-5.482-72.444-9.614q-18.126-3.185-36.26-6.825c-12.093-2.468-24.185-5.037-36.276-7.635-12.1-2.531-24.2-5.048-36.3-7.424q-18.16-3.659-36.306-8.051c-6.058-1.532-12.092-3.006-18.142-4.463-6.042-1.565-12.084-2.975-18.119-4.569-12.083-3.1-24.14-6.195-36.152-9.816.006-.428.029-.853.036-1.288" transform="translate(-214.684 -151.481)" fill="#333"/>
    <path id="Path_23" data-name="Path 23" d="M271.629,209.114a261.383,261.383,0,0,1,40.992.114c6.816.4,13.611,1.221,20.45,1.979,6.808.882,13.6,1.865,20.427,2.914,13.586,2.192,27.2,5.062,40.806,8.359s27.2,6.684,40.823,10.045c13.616,3.236,27.22,6.439,40.853,9.461,13.6,3.051,27.221,5.934,40.861,8.451,27.251,5.143,54.524,8.8,81.83,9.95.014.277.045.552.06.814-27.228.269-54.463-2.132-81.715-5.728-13.642-1.862-27.282-4.047-40.915-6.417-13.641-2.423-27.282-5.029-40.931-7.652-13.655-2.531-27.3-5.084-40.953-7.483s-27.311-5.023-40.952-7.729q-10.237-2.164-20.473-4.065c-6.808-1.41-13.619-2.6-20.433-3.941-13.627-2.584-27.213-5.015-40.793-7.713.031-.444.045-.9.061-1.357" transform="translate(-225.178 -137.903)" fill="#333"/>
    <path id="Path_24" data-name="Path 24" d="M265.159,225.184a244.537,244.537,0,0,1,43.252-2.908c7.185.033,14.378.46,21.556.9q10.788.875,21.56,2.087c14.347,1.749,28.695,4.255,43.039,7.269s28.7,6.181,43.048,9.317c28.731,6.111,57.47,12.084,86.2,16.278,28.748,4.349,57.508,6.78,86.3,5.875.016.275.055.554.069.819-28.706,2.278-57.456,1.066-86.207-1.749-28.749-2.936-57.531-7.582-86.322-12.29-14.384-2.266-28.786-4.553-43.185-6.649-14.4-2.063-28.808-4.286-43.2-6.494-7.2-1.18-14.393-2.27-21.579-3.22-7.206-1.1-14.384-1.936-21.561-2.914-14.362-1.809-28.715-3.32-43.024-4.892.016-.491.039-.936.056-1.433" transform="translate(-231.887 -123.486)" fill="#333"/>
    <path id="Path_25" data-name="Path 25" d="M255.992,243.914a236.588,236.588,0,0,1,46.487-7.138c7.746-.552,15.467-.583,23.2-.583q11.593.208,23.172.922c15.426,1.057,30.863,3.067,46.291,5.689,15.412,2.629,30.838,5.5,46.288,8.357,30.865,5.582,61.75,11.111,92.642,14.369,30.907,3.466,61.825,4.493,92.787,1.22.031.267.045.528.061.783-30.856,4.646-61.763,4.776-92.681,2.914-30.923-2.017-61.847-6.189-92.8-10.269-15.5-1.962-30.962-3.88-46.452-5.5-15.473-1.626-30.962-3.287-46.435-4.823-7.729-.821-15.473-1.526-23.2-2.04-7.729-.664-15.459-1.027-23.186-1.473-15.436-.736-30.864-.927-46.229-.966.031-.483.045-.972.061-1.457" transform="translate(-241.407 -109.017)" fill="#333"/>
    <path id="Path_26" data-name="Path 26" d="M249.568,264.04a235.675,235.675,0,0,1,48.322-11.11c8.043-1.119,16.07-1.671,24.1-2.15,8.021-.365,16.049-.473,24.076-.426a433.79,433.79,0,0,1,48.1,3.589c16.025,2.024,32.066,4.4,48.1,6.778,32.068,4.615,64.173,9.309,96.27,11.577,32.128,2.416,64.261,2.239,96.428-2.729.016.261.03.536.053.8-32.066,6.319-64.17,7.607-96.312,6.786-32.128-1-64.272-4.286-96.439-7.322-16.085-1.441-32.172-2.8-48.266-3.772s-32.181-1.91-48.261-2.623c-8.043-.413-16.078-.675-24.107-.713-8.02-.2-16.055-.053-24.076.038-16.039.345-32.081,1.38-48.045,2.775.006-.5.045-1,.061-1.5" transform="translate(-248.072 -94.331)" fill="#333"/>
    <path id="Path_27" data-name="Path 27" d="M248.865,282.4a249.055,249.055,0,0,1,48.667-13.127c8.106-1.443,16.188-2.34,24.284-3.159,8.09-.677,16.172-1.135,24.26-1.42a429.15,429.15,0,0,1,48.468,1.671c16.133,1.392,32.3,3.122,48.451,4.87,32.321,3.328,64.655,6.726,97,7.683,32.358,1.12,64.716-.362,97.105-6.655.03.261.061.53.083.782-32.313,7.608-64.668,10.214-97.018,10.675-32.381.305-64.769-1.64-97.174-3.328-16.2-.766-32.412-1.473-48.619-1.773s-32.412-.589-48.622-.644c-8.1-.072-16.2-.014-24.3.261-8.065.138-16.163.591-24.251,1-16.156.974-32.312,2.63-48.4,4.654.015-.483.047-1,.062-1.494" transform="translate(-248.803 -79.57)" fill="#333"/>
    <path id="Path_28" data-name="Path 28" d="M254.012,299.618a267.25,267.25,0,0,1,47.531-13.02c7.921-1.518,15.819-2.531,23.716-3.511q11.835-1.22,23.687-1.956a457.876,457.876,0,0,1,47.324.116c15.773.782,31.554,1.81,47.334,2.815,31.567,1.862,63.159,3.63,94.757,3.105,31.59-.368,63.213-3.183,94.863-10.291.031.261.031.53.055.8-31.569,8.4-63.151,12.268-94.751,14.191-31.612,1.774-63.249,1.465-94.9,1.283-15.834-.017-31.659,0-47.486.336-15.842.331-31.684.583-47.485.982-7.914.123-15.819.361-23.718.766-7.921.292-15.826.844-23.708,1.334-15.8,1.1-31.567,2.715-47.286,4.543.031-.494.039-.982.069-1.492" transform="translate(-243.469 -66.796)" fill="#333"/>
    <path id="Path_29" data-name="Path 29" d="M262.173,318.505a287.454,287.454,0,0,1,44.878-12.137c7.46-1.5,14.907-2.554,22.383-3.62q11.178-1.394,22.359-2.384c14.9-1.235,29.789-1.61,44.687-1.473,14.876.122,29.766.431,44.681.66,29.81.322,59.615.432,89.442-1.326,29.828-1.6,59.693-5.207,89.567-12.078.014.261.045.522.069.8-29.79,8.149-59.626,12.767-89.451,15.911-29.866,2.982-59.718,4.326-89.6,5.682-14.946.774-29.891,1.54-44.848,2.515q-22.4,1.482-44.819,2.567-11.2.474-22.39,1.235c-7.463.361-14.922.983-22.383,1.443-14.9,1.066-29.789,2.424-44.632,3.68.015-.49.037-.982.053-1.473" transform="translate(-234.983 -57.175)" fill="#333"/>
    <path id="Path_30" data-name="Path 30" d="M266.027,339.116a313.409,313.409,0,0,1,42.924-12.467c7.13-1.642,14.277-2.884,21.415-4.172q10.687-1.7,21.387-3.13c14.252-1.779,28.506-2.822,42.747-3.388s28.492-1.027,42.747-1.549c14.262-.613,28.525-1.28,42.771-2.139,14.277-.819,28.523-1.833,42.815-3.189A661.766,661.766,0,0,0,608.5,295.827c.031.256.047.518.062.786-28.509,7.752-57.049,12.929-85.587,17.076-14.285,2.017-28.545,3.743-42.847,5.345-14.27,1.557-28.562,2.979-42.854,4.379-14.286,1.537-28.585,3.067-42.878,4.777s-28.6,3.181-42.9,4.516c-7.131.583-14.285,1.227-21.415,1.962-7.13.561-14.276,1.366-21.407,1.971-14.27,1.351-28.508,2.783-42.7,3.957.016-.5.033-.988.055-1.479" transform="translate(-230.985 -47.129)" fill="#333"/>
    <path id="Path_31" data-name="Path 31" d="M274.422,357.68A341.583,341.583,0,0,1,314.21,345.5c6.623-1.709,13.241-3.05,19.864-4.477q9.9-1.919,19.822-3.687c13.213-2.2,26.43-3.792,39.635-5,13.212-1.135,26.431-2.3,39.65-3.574q19.828-1.966,39.657-4.186,19.841-2.185,39.68-4.892c26.469-3.558,52.946-8.174,79.453-14.169.022.276.039.528.053.8-26.43,7.251-52.891,12.858-79.338,17.927-13.249,2.484-26.477,4.8-39.718,7.038q-19.887,3.281-39.741,6.411c-13.252,2.179-26.515,4.386-39.758,6.778-13.28,2.316-26.521,4.387-39.765,6.136-6.631.819-13.264,1.64-19.874,2.515-6.625.741-13.242,1.656-19.85,2.331-13.219,1.48-26.454,2.875-39.6,3.725.017-.491.031-1,.047-1.488" transform="translate(-222.265 -37.08)" fill="#333"/>
    <path id="Path_32" data-name="Path 32" d="M288.941,372.225a325.506,325.506,0,0,1,34.084-11.518c5.642-1.7,11.307-3.081,16.983-4.546,5.65-1.349,11.316-2.661,16.952-3.964,11.335-2.47,22.622-4.441,33.946-6.073q16.965-2.347,33.938-4.97,16.977-2.679,33.945-5.536,17-2.781,33.982-5.842c22.642-3.987,45.316-8.557,67.991-13.573.036.286.053.539.07.814-22.622,6.288-45.272,11.839-67.922,17.321q-16.989,4-33.99,7.93Q441.9,346.122,424.9,349.94c-11.343,2.615-22.667,5.239-34.031,8.023q-17.031,4.1-34.044,7.163-8.5,1.4-17,2.836c-5.668.828-11.326,1.771-16.986,2.454-11.323,1.479-22.633,2.762-33.92,3.251.023-.475.023-.966.023-1.441" transform="translate(-207.172 -25.982)" fill="#333"/>
    <path id="Path_33" data-name="Path 33" d="M315.07,376.986a212.837,212.837,0,0,1,23.255-9.815q11.606-4.2,23.21-7.528c7.722-2.226,15.451-4.05,23.18-5.554,7.722-1.441,15.464-3,23.2-4.6q11.6-2.485,23.2-5.039c7.746-1.64,15.467-3.328,23.221-5.021,15.5-3.314,30.984-6.841,46.5-10.245.006.276.022.552.037.828-15.449,4.77-30.932,9.325-46.4,14.063-7.73,2.331-15.475,4.638-23.227,6.994q-11.616,3.459-23.233,6.947c-7.776,2.368-15.512,4.815-23.271,7.338-7.746,2.476-15.5,4.624-23.241,6.386s-15.512,3.253-23.256,4.433a165.071,165.071,0,0,1-23.194,2.17c0-.452,0-.912.023-1.357" transform="translate(-180.055 -12.51)" fill="#333"/>
    <path id="Path_34" data-name="Path 34" d="M347.72,173.784a74.236,74.236,0,0,1,11.418,1.3c3.718.667,7.408,1.487,11.01,2.476,7.277,1.842,14.009,5.253,20.965,8.023q10.454,4.093,20.81,8.4c6.916,2.945,13.863,5.759,20.733,8.8l-.276.775c-7.293-1.81-14.5-3.819-21.755-5.7q-10.846-2.968-21.629-6.1c-7.192-2.079-14.591-3.475-21.493-6.46-3.458-1.431-6.872-3.024-10.214-4.772a75.307,75.307,0,0,1-9.816-5.967Z" transform="translate(-146.404 -173.784)" fill="#333"/>
    <path id="Path_35" data-name="Path 35" d="M349.675,369.342a96.147,96.147,0,0,1,11.488-5.965c3.877-1.779,7.859-3.289,11.837-4.77,7.951-2.981,16.378-4.361,24.607-6.417q12.319-3.105,24.72-6.025c8.273-1.887,16.53-3.88,24.843-5.644l.23.768c-7.935,3.036-15.941,5.856-23.915,8.8q-11.973,4.277-24.016,8.38c-8.018,2.745-15.841,6.146-24.152,7.99-4.141.935-8.3,1.81-12.53,2.438a92.489,92.489,0,0,1-12.89,1.243Z" transform="translate(-144.119 -0.749)" fill="#333"/>
  </g>
</svg>
